# xmcd
#
# Track frame offsets: 
#        150
#        9547
#        25485
#        35212
#        45475
#        59612
#        75960
#        87897
#        98000
#        106997
#        117085
#        131495
#
# Disc length: 1896 seconds
#
# Revision: 0
# Processed by: cddbd v1.5.2PL0 Copyright (c) Steve Scherf et al.
# Submitted via: ExactAudioCopy v0.99pb3
#
DISCID=9007660c
DTITLE=Various Artist - A Sleigh-full of Twang - Best of Country Christmas
DYEAR=2004
DGENRE=Christmas
TTITLE0=Christmas Time's A Comin'
TTITLE1=Cowboy's Christmas Gift
TTITLE2=One Happy Christmas
TTITLE3=I'm Gonna Tell Santa Claus On You
TTITLE4=Rudolph, The Red-Nosed Reindeer
TTITLE5=Santa's Workshop
TTITLE6=Mississippi Christmas Eve
TTITLE7=Walking In A Winter Wonderland
TTITLE8=Mr. and Mrs. Santa Claus
TTITLE9=That Christmas Feeling
TTITLE10=White Christmas
TTITLE11=Pretty Paper
EXTD=
EXTT0=
EXTT1=
EXTT2=
EXTT3=
EXTT4=
EXTT5=
EXTT6=
EXTT7=
EXTT8=
EXTT9=
EXTT10=
EXTT11=
PLAYORDER=
